<?xml version="1.0" encoding="UTF-8" standalone="no"?>
<!DOCTYPE svg PUBLIC "-//W3C//DTD SVG 1.1//EN" "http://www.w3.org/Graphics/SVG/1.1/DTD/svg11.dtd">
<svg width="100%" height="100%" viewBox="0 0 248 35" version="1.1" xmlns="http://www.w3.org/2000/svg" xmlns:xlink="http://www.w3.org/1999/xlink" xml:space="preserve" xmlns:serif="http://www.serif.com/" style="fill-rule:evenodd;clip-rule:evenodd;stroke-linejoin:round;stroke-miterlimit:1.41421;">
    <g id="aliem-cards-logo">
        <g id="path3466" transform="matrix(1,0,0,1,-8.19336,0)">
            <path d="M57.162,11.505L54.108,19.315L60.25,19.315L57.162,11.505ZM55.032,4.191L59.611,4.191L70.545,29.326L64.297,29.326L62.132,24.001L52.369,24.001L50.274,29.326L44.169,29.326L55.032,4.191" style="fill:rgb(112,109,110);fill-rule:nonzero;"/>
        </g>
        <g id="path3468" transform="matrix(1,0,0,1,-8.19336,0)">
            <path d="M73.279,4.191L78.817,4.191L78.817,24.214L89.076,24.214L89.076,29.326L73.279,29.326L73.279,4.191" style="fill:rgb(112,109,110);fill-rule:nonzero;"/>
        </g>
        <g id="path3470" transform="matrix(1,0,0,1,-8.19336,0)">
            <path d="M91.526,12.072L96.85,12.072L96.85,29.326L91.526,29.326L91.526,12.072ZM91.099,6.641C91.099,5.789 91.401,5.061 92.005,4.458C92.608,3.854 93.335,3.553 94.188,3.553C95.04,3.553 95.768,3.855 96.371,4.458C96.975,5.061 97.276,5.789 97.276,6.641C97.276,7.493 96.975,8.221 96.371,8.824C95.768,9.428 95.04,9.729 94.188,9.729C93.336,9.729 92.608,9.428 92.005,8.824C91.401,8.221 91.099,7.493 91.099,6.641" style="fill:rgb(112,109,110);fill-rule:nonzero;"/>
        </g>
        <g id="path3472" transform="matrix(1,0,0,1,-8.19336,0)">
            <path d="M101.572,4.191L118.647,4.191L118.647,9.303L107.11,9.303L107.11,13.989L118.009,13.989L118.009,19.101L107.11,19.101L107.11,24.214L119.287,24.214L119.287,29.326L101.572,29.326L101.572,4.191" style="fill:rgb(112,109,110);fill-rule:nonzero;"/>
        </g>
        <g id="path3474" transform="matrix(1,0,0,1,-8.19336,0)">
            <path d="M123.724,4.191L132.102,4.191L137.888,20.592L137.959,20.592L143.781,4.191L152.124,4.191L152.124,29.326L146.586,29.326L146.586,10.049L146.515,10.049L139.912,29.326L135.687,29.326L129.332,10.049L129.262,10.049L129.262,29.326L123.723,29.326L123.723,4.191" style="fill:rgb(112,109,110);fill-rule:nonzero;"/>
        </g>
        <g transform="matrix(1,0,0,1,-8.19336,0)">
            <path d="M172.686,6.823C169.761,6.823 167.459,7.758 165.78,9.63C164.1,11.501 163.26,14.064 163.26,17.317C163.26,20.645 164.052,23.229 165.636,25.068C167.22,26.908 169.485,27.828 172.43,27.828C174.386,27.828 176.183,27.577 177.82,27.078L177.82,28.513C176.279,29.055 174.354,29.326 172.047,29.326C168.772,29.326 166.194,28.268 164.312,26.152C162.43,24.036 161.489,21.08 161.489,17.285C161.489,14.914 161.939,12.824 162.837,11.017C163.735,9.209 165.027,7.814 166.713,6.831C168.397,5.847 170.357,5.355 172.59,5.355C174.865,5.355 176.901,5.781 178.698,6.631L178.044,8.098C176.343,7.248 174.557,6.823 172.686,6.823Z" style="fill:rgb(112,109,110);fill-rule:nonzero;"/>
            <path d="M193.147,29.007L192.748,26.264L192.62,26.264C191.749,27.381 190.853,28.17 189.934,28.633C189.014,29.095 187.927,29.327 186.672,29.327C184.971,29.327 183.647,28.89 182.701,28.018C181.755,27.147 181.281,25.94 181.281,24.398C181.281,22.708 181.986,21.394 183.395,20.459C184.804,19.523 186.842,19.029 189.511,18.976L192.812,18.88L192.812,17.731C192.812,16.084 192.477,14.84 191.808,14C191.137,13.16 190.059,12.74 188.57,12.74C186.964,12.74 185.3,13.186 183.578,14.08L182.988,12.708C184.891,11.815 186.773,11.369 188.634,11.369C190.536,11.369 191.959,11.863 192.9,12.852C193.841,13.84 194.311,15.382 194.311,17.476L194.311,29.007L193.147,29.007ZM186.768,27.891C188.618,27.891 190.077,27.362 191.146,26.304C192.214,25.246 192.748,23.776 192.748,21.894L192.748,20.188L189.718,20.316C187.284,20.432 185.548,20.813 184.511,21.455C183.474,22.099 182.956,23.101 182.956,24.462C182.956,25.546 183.289,26.389 183.953,26.99C184.617,27.59 185.556,27.891 186.768,27.891Z" style="fill:rgb(112,109,110);fill-rule:nonzero;"/>
            <path d="M206.751,11.336C207.484,11.336 208.271,11.411 209.111,11.559L208.808,13.075C208.084,12.894 207.335,12.804 206.559,12.804C205.081,12.804 203.869,13.431 202.923,14.686C201.976,15.941 201.503,17.524 201.503,19.438L201.503,29.007L199.924,29.007L199.924,11.671L201.264,11.671L201.423,14.797L201.535,14.797C202.248,13.521 203.008,12.626 203.816,12.11C204.624,11.594 205.603,11.336 206.751,11.336Z" style="fill:rgb(112,109,110);fill-rule:nonzero;"/>
            <path d="M218.983,11.336C220.238,11.336 221.322,11.565 222.237,12.022C223.151,12.479 223.97,13.261 224.692,14.366L224.788,14.366C224.725,13.027 224.692,11.714 224.692,10.427L224.692,4.191L226.256,4.191L226.256,29.007L225.219,29.007L224.82,26.36L224.692,26.36C223.374,28.338 221.481,29.327 219.015,29.327C216.622,29.327 214.793,28.582 213.528,27.094C212.263,25.605 211.631,23.436 211.631,20.586C211.631,17.588 212.258,15.297 213.512,13.712C214.767,12.128 216.591,11.336 218.983,11.336ZM218.983,12.772C217.091,12.772 215.668,13.436 214.717,14.765C213.765,16.094 213.29,18.024 213.29,20.554C213.29,25.466 215.199,27.922 219.016,27.922C220.971,27.922 222.407,27.354 223.321,26.216C224.236,25.079 224.692,23.202 224.692,20.586L224.692,20.315C224.692,17.636 224.243,15.709 223.345,14.534C222.447,13.359 220.992,12.772 218.983,12.772Z" style="fill:rgb(112,109,110);fill-rule:nonzero;"/>
            <path d="M242.826,24.494C242.826,26.046 242.236,27.24 241.056,28.074C239.876,28.909 238.201,29.327 236.032,29.327C233.714,29.327 231.875,28.97 230.514,28.258L230.514,26.551C232.258,27.423 234.097,27.859 236.032,27.859C237.744,27.859 239.044,27.575 239.931,27.006C240.819,26.437 241.263,25.68 241.263,24.734C241.263,23.861 240.909,23.128 240.202,22.532C239.495,21.937 238.333,21.353 236.717,20.778C234.985,20.151 233.767,19.611 233.065,19.159C232.364,18.708 231.834,18.197 231.479,17.628C231.122,17.06 230.944,16.366 230.944,15.547C230.944,14.25 231.489,13.224 232.579,12.469C233.668,11.714 235.192,11.337 237.148,11.337C239.019,11.337 240.795,11.687 242.474,12.389L241.884,13.824C240.183,13.123 238.604,12.772 237.148,12.772C235.733,12.772 234.612,13.006 233.782,13.473C232.953,13.941 232.539,14.59 232.539,15.419C232.539,16.323 232.86,17.045 233.503,17.588C234.147,18.131 235.404,18.736 237.275,19.406C238.838,19.97 239.975,20.477 240.688,20.93C241.4,21.382 241.934,21.894 242.291,22.469C242.648,23.042 242.826,23.718 242.826,24.494Z" style="fill:rgb(112,109,110);fill-rule:nonzero;"/>
        </g>
        <g transform="matrix(1.37395,0,0,1.37395,-6.41494,-0.579734)">
            <g>
                <path d="M25.546,16.593L25.546,15.456L15.656,21.169L6.757,16.022L6.757,14.882L15.656,20.042L25.546,14.329L25.546,13.187L15.656,18.899L6.757,13.739L6.757,12.599L15.656,17.772L25.546,12.059L25.546,10.917L15.656,16.629L6.757,11.456L6.757,10.309L15.715,15.45L26.651,9.167L26.651,6.882L15.783,0.599L4.915,6.882L4.915,19.448L15.784,25.732L26.651,19.448L26.651,17.164L25.546,16.593ZM25.546,17.735L15.656,23.447L6.757,18.306L6.757,17.164L15.656,22.311L25.546,16.599L25.546,17.735ZM13.368,10.215L12.7,10.575L9.552,8.904L12.487,7.32L12.516,7.324L12.527,7.325C12.767,7.357 13.006,7.393 13.245,7.433C13.244,7.557 13.333,7.681 13.509,7.774C13.615,7.831 13.74,7.869 13.874,7.892C13.973,8.578 13.814,9.335 13.395,10.159L13.368,10.215ZM19.087,10.468C18.888,9.847 18.495,9.297 17.914,8.825C18.166,8.633 18.135,8.369 17.818,8.2C17.792,8.186 17.765,8.174 17.737,8.162C17.997,7.806 18.18,7.463 18.304,7.138C18.449,7.117 18.588,7.076 18.704,7.015L19.109,7.116L18.941,7.207L22.089,8.878L19.096,10.494L19.089,10.475L19.087,10.468ZM16.671,9.294C16.776,9.204 16.875,9.114 16.969,9.025C17.115,9.042 17.266,9.039 17.41,9.017C17.834,9.364 18.149,9.757 18.35,10.193L18.405,10.314L16.6,9.355L16.666,9.298L16.671,9.294ZM14.225,9.704C14.478,9.054 14.565,8.444 14.486,7.877C14.595,7.854 14.697,7.818 14.787,7.772C15.169,7.878 15.537,8 15.883,8.141C16.045,8.208 16.199,8.277 16.347,8.35C16.205,8.515 16.241,8.712 16.459,8.857C16.385,8.927 16.308,8.996 16.228,9.066L16.162,9.123L15.774,8.916L14.203,9.764L14.222,9.712L14.225,9.704ZM14.018,6.657C14.079,6.75 14.135,6.844 14.185,6.939C14.409,6.941 14.63,6.987 14.801,7.078C15.004,7.185 15.09,7.333 15.059,7.475C15.475,7.591 15.878,7.725 16.258,7.879C16.44,7.954 16.612,8.032 16.778,8.113C16.902,8.08 17.037,8.062 17.172,8.061C17.4,7.751 17.576,7.436 17.699,7.115C17.601,7.092 17.508,7.06 17.428,7.017C17.27,6.933 17.183,6.826 17.167,6.715C16.213,6.568 15.233,6.487 14.227,6.473C14.185,6.54 14.115,6.603 14.018,6.657ZM11.8,6.562C12.041,6.542 12.281,6.525 12.52,6.511C12.564,6.57 12.63,6.625 12.719,6.672C12.922,6.78 13.198,6.825 13.464,6.807C13.513,6.885 13.56,6.964 13.601,7.044C13.57,7.057 13.541,7.07 13.513,7.085C13.492,7.096 13.473,7.108 13.454,7.12C12.998,7.042 12.538,6.98 12.081,6.931L12.022,6.924L11.411,6.6L11.45,6.596L11.8,6.562ZM19.52,6.872C19.337,6.823 19.155,6.777 18.973,6.733C19.014,6.586 18.93,6.432 18.719,6.32C18.657,6.287 18.587,6.26 18.514,6.238C18.527,6.093 18.529,5.954 18.523,5.823C18.496,5.229 18.307,4.716 18.091,4.315L18.083,4.299L18.867,3.876L22.014,5.548L19.547,6.879L19.537,6.877L19.52,6.872ZM11.183,4.653L12.645,3.864L15.793,5.535L17.581,4.57L17.591,4.59C17.756,4.939 17.889,5.361 17.911,5.836C17.916,5.954 17.914,6.073 17.906,6.191C17.732,6.209 17.566,6.255 17.432,6.328C17.385,6.353 17.345,6.38 17.31,6.409C16.231,6.243 15.192,6.165 14.22,6.15C14.176,6.086 14.107,6.026 14.011,5.975C13.811,5.869 13.541,5.824 13.279,5.839C12.664,5.313 11.903,4.929 11.184,4.653L11.183,4.653ZM10.89,6.324L9.478,5.573L10.739,4.893L10.747,4.896C11.419,5.147 12.139,5.5 12.721,5.984C12.614,6.042 12.539,6.111 12.497,6.183C12.227,6.198 11.964,6.217 11.71,6.239C11.443,6.262 11.183,6.289 10.929,6.319L10.89,6.324Z" style="fill:rgb(0,176,146);"/>
            </g>
        </g>
    </g>
</svg>
